<svg width="320" height="320" viewBox="0 0 320 320" xmlns="http://www.w3.org/2000/svg">
  <style>
    .bg { fill: #f7f7f8; }
    .center { stroke: #cfd6de; stroke-width: 1.5; stroke-dasharray: 6 4; fill: none; }
    .body { fill: rgba(240,140,66,0.2); stroke: #1f2a44; stroke-width: 3; }
    .metal { fill: none; stroke: #1f2a44; stroke-width: 3; }
    .dim { stroke: #9fb3c8; stroke-width: 2; fill: none; }
    .dimtext { fill: #1f2a44; font-family: sans-serif; font-size: 16px; }
    .arrow { fill: #9fb3c8; }
  </style>
  <defs>
    <marker id="arrow-end" markerWidth="10" markerHeight="10" refX="8" refY="3" orient="auto" markerUnits="strokeWidth">
      <path d="M0,0 L0,6 L9,3 z" class="arrow"/>
    </marker>
  </defs>
  <rect width="320" height="320" class="bg" rx="12" ry="12"/>
  <line x1="160" y1="20" x2="160" y2="300" class="center"/>
  <path class="body" d="M90 110 L90 210 L124 210 L124 140 L160 120 L196 160 L230 140 L230 80 L126 80 Z"/>
  <path class="metal" d="M90 110 L70 110 L70 210 L90 210"/>
  <line x1="112" y1="250" x2="208" y2="250" class="dim" marker-end="url(#arrow-end)" marker-start="url(#arrow-end)"/>
  <text x="160" y="244" text-anchor="middle" class="dimtext">d1</text>
  <line x1="60" y1="230" x2="260" y2="230" class="dim" marker-end="url(#arrow-end)" marker-start="url(#arrow-end)"/>
  <text x="270" y="228" text-anchor="start" class="dimtext">d2</text>
  <line x1="46" y1="110" x2="46" y2="210" class="dim" marker-end="url(#arrow-end)" marker-start="url(#arrow-end)"/>
  <text x="40" y="164" text-anchor="end" class="dimtext">b</text>
</svg>
